<svg id="aaea678d-2894-4d29-80f4-c4d2844a51d3" data-name="icon" xmlns="http://www.w3.org/2000/svg" viewBox="0 0 36 36"><title>building_solid</title><path d="M31,8H22V33H33V10A2,2,0,0,0,31,8ZM26,25H24V23h2Zm0-5H24V18h2Zm0-5H24V13h2Zm4,10H28V23h2Zm0-5H28V18h2Zm0-5H28V13h2Z"/><path d="M17.88,3H6.12A2.12,2.12,0,0,0,4,5.12V33H9V30h6v3h5V5.12A2.12,2.12,0,0,0,17.88,3ZM9,25H7V23H9Zm0-5H7V18H9Zm0-5H7V13H9Zm0-5H7V8H9Zm4,15H11V23h2Zm0-5H11V18h2Zm0-5H11V13h2Zm0-5H11V8h2Zm4,15H15V23h2Zm0-5H15V18h2Zm0-5H15V13h2Zm0-5H15V8h2Z"/></svg>