<svg id="245e36f3-e813-4d78-960c-af54150cae79" data-name="icon" xmlns="http://www.w3.org/2000/svg" viewBox="0 0 36 36"><title>building_line</title><path d="M31,8H23v2h8V31H23v2H33V10A2,2,0,0,0,31,8Z"/><path d="M19.88,3H6.12A2.12,2.12,0,0,0,4,5.12V33H22V5.12A2.12,2.12,0,0,0,19.88,3ZM20,31H17V28H9v3H6V5.12A.12.12,0,0,1,6.12,5H19.88a.12.12,0,0,1,.12.12Z"/><rect x="8" y="8" width="2" height="2"/><rect x="12" y="8" width="2" height="2"/><rect x="16" y="8" width="2" height="2"/><rect x="8" y="13" width="2" height="2"/><rect x="12" y="13" width="2" height="2"/><rect x="16" y="13" width="2" height="2"/><rect x="8" y="18" width="2" height="2"/><rect x="12" y="18" width="2" height="2"/><rect x="16" y="18" width="2" height="2"/><rect x="8" y="23" width="2" height="2"/><rect x="12" y="23" width="2" height="2"/><rect x="16" y="23" width="2" height="2"/><rect x="23" y="13" width="2" height="2"/><rect x="27" y="13" width="2" height="2"/><rect x="23" y="18" width="2" height="2"/><rect x="27" y="18" width="2" height="2"/><rect x="23" y="23" width="2" height="2"/><rect x="27" y="23" width="2" height="2"/></svg>