<?xml version="1.0" encoding="utf-8"?>
<!-- Generator: Adobe Illustrator 21.0.0, SVG Export Plug-In . SVG Version: 6.00 Build 0)  -->
<svg version="1.1" id="_x30_3bf0ad8-e2b1-4e5c-a598-50d1b4f23752"
	 xmlns="http://www.w3.org/2000/svg" xmlns:xlink="http://www.w3.org/1999/xlink" x="0px" y="0px" viewBox="0 0 36 36"
	 style="enable-background:new 0 0 36 36;" xml:space="preserve">
<title>server_solid</title>
<g>
	<path d="M26.5,2h-17C8.7,2,8,2.7,8,3.5V34h20V3.5C28,2.7,27.3,2,26.5,2z M18,30.5c-1.5,0-2.8-1.2-2.8-2.8S16.5,25,18,25
		s2.8,1.2,2.8,2.8S19.5,30.5,18,30.5z M23,22.6H13V21h10V22.6z M24,11.6H12V10h12V11.6z M24,7.6H12V6h12V7.6z"/>
	<circle cx="18" cy="27.8" r="1.2"/>
</g>
</svg>
